<svg xmlns="http://www.w3.org/2000/svg" width="24" height="26" viewBox="0 0 24 26">
  <path fill-rule="evenodd" d="M244.375308,2.56401786 C244.737615,2.263625 245.094385,1.91216071 245.295154,1.26773214 C245.888692,1.90798214 245.923308,3.232125 245.923308,3.25023214 C245.923308,3.761875 245.509308,4.17880357 245.000231,4.17880357 C244.490692,4.17880357 244.077154,3.761875 244.077154,3.25023214 C244.077154,2.81101786 244.122385,2.77341071 244.375308,2.56401786 L244.375308,2.56401786 Z M245.000231,5.107375 C246.019769,5.107375 246.846385,4.27583929 246.846385,3.25023214 C246.846385,2.22416071 246.384846,0.000232142857 244.538692,0.000232142857 C244.538692,2.32166071 243.154077,1.39308929 243.154077,3.25023214 C243.154077,4.27583929 243.980692,5.107375 245.000231,5.107375 L245.000231,5.107375 Z M254.231,18.5716607 C254.231,18.5716607 249.615615,19.5002321 245.000231,19.5002321 C240.384846,19.5002321 235.769462,18.5716607 235.769462,18.5716607 L235.769462,15.7859464 C235.769462,15.2729107 236.182538,14.857375 236.692538,14.857375 L243.154077,14.857375 L246.846385,14.857375 L253.307923,14.857375 C253.817462,14.857375 254.231,15.2729107 254.231,15.7859464 L254.231,18.5716607 Z M254.231,25.0716607 L235.769462,25.0716607 L235.769462,19.5002321 C235.769462,19.5002321 240.384846,20.4288036 245.000231,20.4288036 C249.615615,20.4288036 254.231,19.5002321 254.231,19.5002321 L254.231,25.0716607 Z M244.077154,7.447375 L245.923308,6.94919643 L245.923308,13.9288036 L244.077154,13.9288036 L244.077154,7.447375 Z M256.538692,25.0716607 L255.154077,25.0716607 L255.154077,15.7859464 C255.154077,14.759875 254.327,13.9288036 253.307923,13.9288036 L246.846385,13.9288036 L246.846385,6.70080357 L247.794385,6.44498214 C248.040385,6.37858929 248.186692,6.12416071 248.120692,5.87669643 C248.054692,5.62923214 247.801769,5.48158929 247.555308,5.54844643 L242.205615,6.99005357 C241.959615,7.05691071 241.813308,7.31133929 241.879308,7.55880357 C241.945308,7.80673214 242.198231,7.95344643 242.444692,7.88705357 L243.154077,7.69623214 L243.154077,13.9288036 L236.692538,13.9288036 C235.673,13.9288036 234.846385,14.759875 234.846385,15.7859464 L234.846385,25.0716607 L233.461769,25.0716607 C233.206538,25.0716607 233.000231,25.2796607 233.000231,25.5359464 C233.000231,25.7922321 233.206538,26.0002321 233.461769,26.0002321 L256.538692,26.0002321 C256.793462,26.0002321 257.000231,25.7922321 257.000231,25.5359464 C257.000231,25.2796607 256.793462,25.0716607 256.538692,25.0716607 L256.538692,25.0716607 Z" transform="translate(-233)"/>
</svg>
