<svg xmlns="http://www.w3.org/2000/svg" width="27" height="27" viewBox="0 0 27 27">
  <path fill-rule="evenodd" d="M1040.27245,296.268607 C1038.20792,294.431175 1035.79722,293.632729 1035.26092,293.473328 C1033.74037,292.19812 1034.35637,290.777435 1035.46737,288.768598 C1035.63542,288.4642 1035.79962,288.167004 1035.94269,287.88037 C1036.76707,286.233066 1036.62255,285.190718 1036.49916,284.77109 C1036.81988,283.586626 1037.10363,280.29778 1035.44433,278.505959 C1034.45671,277.438644 1033.00818,277.129925 1031.13378,277.583162 C1029.15759,277.595165 1027.71962,278.206842 1026.85924,279.400909 C1025.3747,281.460159 1026.15586,284.542071 1026.36951,285.266097 C1025.95229,286.750159 1026.80258,287.777143 1026.98167,287.972554 C1027.1838,288.252946 1029.4471,291.49858 1027.55254,293.505977 L1026.90485,293.79261 C1024.94691,294.658273 1023.59296,295.263229 1022.47379,296.113527 C1020.30219,293.867029 1018.96025,290.814404 1018.96025,287.443457 C1018.96025,280.549364 1024.54936,274.960247 1031.44346,274.960247 C1038.33803,274.960247 1043.92667,280.549364 1043.92667,287.443457 C1043.92667,290.889784 1042.53047,294.009626 1040.27245,296.268607 M1031.44346,299.926668 C1028.26744,299.926668 1025.37806,298.73116 1023.17477,296.777538 C1024.17343,296.052552 1025.42223,295.498489 1027.29327,294.671236 L1028.10852,294.310183 L1028.17094,294.246807 C1030.83562,291.582122 1027.86318,287.547644 1027.73594,287.377681 L1027.69081,287.326307 C1027.68313,287.318625 1026.94518,286.562431 1027.3264,285.416856 L1027.37777,285.265137 L1027.32688,285.113898 C1027.3168,285.08125 1026.27061,281.8553 1027.63992,279.959773 C1028.31881,279.020171 1029.51384,278.543408 1031.19283,278.543408 L1031.30854,278.529005 C1032.84398,278.145866 1033.99819,278.35664 1034.73999,279.157967 C1036.09489,280.621863 1035.86011,283.667766 1035.53891,284.633295 L1035.48514,284.819583 L1035.55956,284.988586 C1035.56244,284.996748 1035.9014,285.815839 1035.08423,287.451139 C1034.94692,287.72625 1034.78848,288.011444 1034.62716,288.303359 C1033.67411,290.028442 1032.36818,292.38969 1034.73326,294.282336 L1034.81104,294.344272 L1034.90755,294.370679 C1034.94308,294.379801 1037.445,295.087023 1039.55466,296.921095 C1037.37202,298.790696 1034.54265,299.926668 1031.44346,299.926668 M1018,287.443457 C1018,294.868087 1024.01883,300.886915 1031.44346,300.886915 C1038.86809,300.886915 1044.88691,294.868087 1044.88691,287.443457 C1044.88691,280.018828 1038.86809,274 1031.44346,274 C1024.01883,274 1018,280.018828 1018,287.443457 Z" transform="translate(-1018 -274)"/>
</svg>
