<svg width="16" height="16" viewBox="0 0 16 16" xmlns="http://www.w3.org/2000/svg"><title>icon-cause</title><path d="M8.228 14.315L8 14.462l-.226-.145c-.078-.052-.152-.103-.23-.154.34-.3 1.123-1.154 3.126-3.69.127-.16.1-.395-.06-.52-.162-.13-.395-.1-.522.06-1.28 1.62-2.754 3.396-3.05 3.62-.05.022-.09.058-.125.098-.148-.102-.292-.205-.433-.308.322-.327 1.046-1.24 2.858-3.89.115-.17.072-.4-.097-.515-.168-.115-.4-.072-.515.097-1.164 1.703-2.514 3.577-2.794 3.82-.018.01-.033.027-.05.04-.225-.173-.443-.345-.65-.516.347-.37 1.087-1.322 2.805-3.834.115-.17.072-.4-.097-.515-.17-.116-.4-.073-.516.096-1.113 1.628-2.393 3.41-2.748 3.776-.188-.166-.368-.33-.54-.494.298-.29.987-1.142 2.785-3.765.313-.007.632-.123.95-.353 1.162-.84 1.644-2.465 1.664-2.534.057-.197-.056-.402-.252-.46-.197-.057-.403.057-.46.253-.004.014-.434 1.452-1.386 2.14-.24.173-.46.24-.657.2-.166-.03-.296-.134-.383-.223l2.256-4.44c.67-.965 1.782-1.565 2.978-1.565 2.204 0 3.628 1.424 3.628 3.628 0 2.637-.835 5.882-7.03 9.945M4.368.742c1.366 0 2.62.78 3.235 1.995L5.628 6.622c0 .002 0 .003-.002.005-.007.014-.01.028-.016.042l-.01.026-.006.036c-.002.012-.005.024-.005.035-.002.012 0 .023 0 .035v.036c.002.012.006.023.01.034 0 .012.003.025.007.036.003.01.008.018.012.027.005.014.01.028.017.04l.002.005c.025.043.202.324.526.528-1.1 1.597-2.283 3.23-2.544 3.458-.002 0-.004.003-.006.004C1.166 8.415.742 6.24.742 4.37.742 2.166 2.166.742 4.37.742M11.63 0C10.165 0 8.804.745 8 1.945 7.197.745 5.836 0 4.37 0 1.755 0 0 1.756 0 4.37c0 2.835.875 6.31 7.37 10.57l.63.405.633-.408C15.125 10.68 16 7.205 16 4.37 16 1.756 14.244 0 11.63 0" fill-rule="evenodd"/></svg>