<svg xmlns="http://www.w3.org/2000/svg" width="22" height="22" viewBox="0 0 22 22"><g fill="#069" fill-rule="evenodd"><path d="M5.508 3.743c.276 0 .5-.223.5-.5 0-.276-.224-.5-.5-.5H1.455c-.277 0-.5.224-.5.5 0 .277.223.5.5.5h4.053zm15.23 0c.277 0 .5-.223.5-.5 0-.276-.223-.5-.5-.5H10.5c-.277 0-.5.224-.5.5 0 .277.223.5.5.5h10.24z"/><path d="M11 3.25C11 1.73 9.77.5 8.25.5S5.5 1.73 5.5 3.25 6.73 6 8.25 6 11 4.77 11 3.25zm-4.5 0c0-.966.784-1.75 1.75-1.75S10 2.284 10 3.25 9.216 5 8.25 5 6.5 4.216 6.5 3.25zM11.503 11.743c.276 0 .5-.223.5-.5 0-.276-.224-.5-.5-.5H1.455c-.277 0-.5.224-.5.5 0 .277.223.5.5.5h10.048z"/><path d="M17 11.25c0-1.52-1.23-2.75-2.75-2.75s-2.75 1.23-2.75 2.75S12.73 14 14.25 14 17 12.77 17 11.25zm-4.5 0c0-.966.784-1.75 1.75-1.75s1.75.784 1.75 1.75S15.216 13 14.25 13s-1.75-.784-1.75-1.75z"/><path d="M20.74 11.743c.275 0 .5-.223.5-.5 0-.276-.225-.5-.5-.5H16.49c-.276 0-.5.224-.5.5 0 .277.224.5.5.5h4.247z"/><g><path d="M5.508 19.743c.276 0 .5-.223.5-.5 0-.276-.224-.5-.5-.5H1.455c-.277 0-.5.224-.5.5 0 .277.223.5.5.5h4.053z"/><path d="M11 19.25c0-1.52-1.23-2.75-2.75-2.75S5.5 17.73 5.5 19.25 6.73 22 8.25 22 11 20.77 11 19.25zm-4.5 0c0-.966.784-1.75 1.75-1.75s1.75.784 1.75 1.75S9.216 21 8.25 21s-1.75-.784-1.75-1.75z"/><path d="M20.74 19.743c.275 0 .5-.223.5-.5 0-.276-.225-.5-.5-.5H10.496c-.276 0-.5.224-.5.5 0 .277.224.5.5.5H20.74z"/></g></g></svg>