<svg width="15" height="15" viewBox="0 0 15 15" xmlns="http://www.w3.org/2000/svg"><title>icon-frequency</title><g fill-rule="evenodd"><path d="M11.778 2.11V.173h-.966V2.11H7.918V.173h-.98V2.11H4.04V.173h-.965V2.11H.174v12.57H14.68V2.11h-2.902zm1.933 11.603H1.143V3.077h12.57v10.636z"/><path d="M3.077 5.01h.967v.967h-.967zM5.01 5.01h.967v.967H5.01zM6.944 5.01h.967v.967h-.966zM8.877 5.01h.967v.967h-.967zM10.812 5.01h.967v.967h-.968zM3.077 6.944h.967v.967h-.967zM5.01 6.944h.967v.967H5.01zM6.944 6.944h.967v.967h-.966zM8.877 6.944h.967v.967h-.967zM10.812 6.944h.967v.967h-.968zM3.077 8.877h.967v.967h-.967zM5.01 8.877h.967v.967H5.01zM6.944 8.877h.967v.967h-.966zM8.877 8.877h.968v.968h-.968M10.812 8.877h.967v.967h-.968zM3.077 10.812h.967v.967h-.967zM5.01 10.812h.967v.967H5.01zM6.944 10.812h.967v.967h-.966z"/></g></svg>