<svg xmlns="http://www.w3.org/2000/svg" width="27" height="27" viewBox="0 0 27 27">
  <path fill-rule="evenodd" d="M22.0467536,23.6527107 C20.1196286,21.7448714 17.2460571,20.4165679 17.0951464,20.3481036 C17.0912893,20.346175 16.7995929,20.1918893 16.5932357,19.9088714 C18.4986643,19.9729964 20.40795,18.8365857 20.5000393,18.7811393 L21.2536286,18.3288893 L20.4682179,17.936425 C19.770075,17.5873536 19.770075,14.6790679 19.770075,10.653175 C19.770075,4.99619286 15.3869143,4.38531786 13.5017357,4.38531786 C9.63639643,4.38531786 7.23436071,6.78687143 7.23436071,10.653175 C7.23436071,14.1679964 7.23436071,17.2035679 6.41134286,18.0265857 L6.01839643,18.4195321 L6.46341429,18.753175 C7.98891429,19.8977821 9.51345,19.9397286 10.2598071,19.8712643 C10.2520929,20.1219786 10.0582714,20.2695143 9.93146786,20.3374964 L9.62193214,20.4749071 C6.65193214,21.7945321 6.26718214,21.9758179 4.77061071,23.4863714 C2.42595,21.2087286 0.964092857,18.0270679 0.964092857,14.5001929 C0.964092857,7.57662143 6.57671786,1.96447857 13.4998071,1.96447857 C20.4233786,1.96447857 26.0355214,7.57662143 26.0355214,14.5001929 C26.0355214,18.1162643 24.4955571,21.3649429 22.0467536,23.6527107 M13.4998071,27.0359071 C10.4507357,27.0359071 7.65768214,25.9453 5.48466429,24.1358179 C6.84575357,22.7650857 7.20543214,22.6035679 10.0134321,21.3562643 L10.3427357,21.2096929 C10.37745,21.1918536 10.6927714,21.0288893 10.9348071,20.7058536 C11.2833964,20.24155 11.3210036,19.6764786 11.0403964,19.1162286 L10.8677893,18.77005 L10.4922,18.8640679 C10.4777357,18.867925 9.017325,19.2160321 7.43589643,18.2498179 C8.19816429,16.9089786 8.19816429,14.2181393 8.19816429,10.653175 C8.19816429,7.28299643 10.1320393,5.34960357 13.5017357,5.34960357 C15.9220929,5.34960357 18.8053071,6.26953214 18.8053071,10.653175 C18.8053071,14.9365321 18.8053071,17.200675 19.4455929,18.2430679 C18.6678964,18.6104607 17.2214679,19.1610679 16.0296107,18.8640679 L15.4303071,18.7141214 L15.4303071,19.3317464 C15.4303071,20.5795321 16.6115571,21.1846214 16.6771286,21.216925 C16.7157,21.2342821 19.520325,22.5302821 21.3249857,24.2843179 C19.1799321,26.002675 16.4620929,27.0359071 13.4998071,27.0359071 M13.4998071,1.00019286 C6.04443214,1.00019286 -0.000192857144,7.04433571 -0.000192857144,14.5001929 C-0.000192857144,21.9555679 6.04443214,28.0001929 13.4998071,28.0001929 C20.9556643,28.0001929 26.9998071,21.9555679 26.9998071,14.5001929 C26.9998071,7.04433571 20.9556643,1.00019286 13.4998071,1.00019286" transform="translate(0 -1)"/>
</svg>
