<svg width="15" height="15" viewBox="0 0 15 15" xmlns="http://www.w3.org/2000/svg"><title>Sector Icon</title><path d="M.47 7.5C.47 3.623 3.62.47 7.492.47 8.283.47 9.04.6 9.75.843L7.3 7.346l-5.807 3.806C.843 10.088.47 8.838.47 7.5zm.755 4.108l.04.058.12.17c.087.124.178.244.273.362l.066.083c.064.078.13.153.196.227l.055.06c.643.704 1.407 1.272 2.25 1.68l.028.015c.084.04.17.078.255.116.043.02.086.037.13.055.075.03.15.062.228.09.06.023.12.044.18.065.067.023.133.046.2.067.125.04.25.076.378.11.037.01.074.016.11.025.103.025.205.048.31.068.048.01.098.018.147.027.094.016.19.03.283.044l.152.02c.1.01.2.02.3.027.044.003.088.008.133.01.144.008.29.013.435.013 4.053 0 7.362-3.238 7.486-7.266h.005v-.468h-.006c-.004-.1-.01-.197-.015-.294l-.008-.095c-.175-2.122-1.236-3.995-2.81-5.25-.022-.015-.042-.03-.063-.047-.134-.105-.272-.207-.414-.303l-.046-.03c-.123-.08-.248-.158-.375-.232-.043-.025-.084-.05-.127-.073-.136-.076-.275-.148-.416-.215-.04-.02-.08-.036-.118-.054-.126-.057-.253-.11-.38-.16-.026-.01-.05-.022-.073-.03l-.22-.084-.002.005C9.155.145 8.34 0 7.493 0 3.36 0 0 3.365 0 7.5c0 1.43.403 2.77 1.1 3.91l-.004.002.13.196z" fill-rule="evenodd"/></svg>