<svg xmlns="http://www.w3.org/2000/svg" width="52" height="52" viewBox="0 0 52 52">
  <g fill="none" fill-rule="evenodd" transform="translate(1 1)">
    <path d="M25,50 C38.8071187,50 50,38.8071187 50,25 C50,12.6688483 41.0722286,2.42288925 29.3277998,0.373236898 C27.9220601,0.127905457 26.475967,0 25,0 C11.1928813,0 0,11.1928813 0,25 C0,38.8071187 11.1928813,50 25,50 Z"/>
    <path d="M25.0757 11.5C25.0757 11.5 15.8877 20.444 16.5327 29.147 17.1767 37.85 25.0757 37.527 25.0757 37.527 25.0757 37.527 33.1317 37.527 33.7767 29.228 34.4207 20.928 25.0757 11.5 25.0757 11.5L25.0757 11.5zM31.2251 26.391C31.2251 26.391 32.6761 32.548 27.4751 34.625" stroke-linecap="round" stroke-linejoin="round"/>
  </g>
</svg>
