<svg xmlns="http://www.w3.org/2000/svg" width="30" height="27" viewBox="0 0 30 27">
  <g fill="#006699" fill-rule="evenodd">
    <path d="M29.3924051,13.1197183 C29.3924051,13.3478873 29.2025316,13.5380282 28.9746835,13.5380282 L27.835443,13.5380282 L2.05063291,13.5380282 L0.911392405,13.5380282 C0.683544304,13.5380282 0.493670886,13.3478873 0.493670886,13.1197183 L0.493670886,10.8 C0.493670886,10.571831 0.683544304,10.3816901 0.911392405,10.3816901 L14.2025316,10.3816901 L13.8227848,10.7619718 C13.6329114,10.9521127 13.556962,11.1802817 13.556962,11.4084507 C13.556962,11.6746479 13.6708861,11.9028169 13.8227848,12.0549296 L14.5063291,12.7394366 C14.6962025,12.9295775 14.9240506,13.0056338 15.1518987,13.0056338 C15.4177215,13.0056338 15.6455696,12.8915493 15.7974684,12.7394366 L18.1898734,10.343662 L28.8987342,10.343662 C29.1265823,10.343662 29.3164557,10.5338028 29.3164557,10.7619718 L29.3164557,13.1197183 L29.3924051,13.1197183 Z M27.6075949,25.6309859 C27.6075949,26.0492958 27.2658228,26.3915493 26.8481013,26.3915493 L3.07594937,26.3915493 C2.65822785,26.3915493 2.3164557,26.0492958 2.3164557,25.6309859 L2.3164557,14.0323944 L27.5696203,14.0323944 L27.5696203,25.6309859 L27.6075949,25.6309859 Z M24.7594937,0.570422535 C24.835443,0.494366197 24.9493671,0.456338028 25.0632911,0.456338028 C25.1772152,0.456338028 25.2911392,0.494366197 25.3670886,0.570422535 L26.0506329,1.25492958 C26.1265823,1.33098592 26.164557,1.44507042 26.164557,1.55915493 C26.164557,1.67323944 26.1265823,1.78732394 26.0506329,1.86338028 L15.5316456,12.3971831 C15.3797468,12.5492958 15.1139241,12.5492958 14.9620253,12.3971831 L14.278481,11.7126761 C14.2025316,11.6366197 14.164557,11.5225352 14.164557,11.4084507 C14.164557,11.2943662 14.2025316,11.1802817 14.278481,11.1042254 L24.7594937,0.570422535 Z M28.9746835,9.84929577 L18.7974684,9.84929577 L26.3924051,2.24366197 C26.5822785,2.05352113 26.6582278,1.82535211 26.6582278,1.5971831 C26.6582278,1.36901408 26.5443038,1.1028169 26.3924051,0.950704225 L25.7088608,0.266197183 C25.5189873,0.076056338 25.2911392,0 25.0632911,0 C24.7974684,0 24.5696203,0.114084507 24.4177215,0.266197183 L14.7721519,9.84929577 L0.949367089,9.84929577 C0.417721519,9.84929577 0,10.2676056 0,10.8 L0,13.1197183 C0,13.6521127 0.417721519,14.0704225 0.949367089,14.0704225 L1.82278481,14.0704225 L1.82278481,25.6690141 C1.82278481,26.3915493 2.39240506,26.9619718 3.11392405,26.9619718 L26.8481013,26.9619718 C27.5696203,26.9619718 28.1392405,26.3915493 28.1392405,25.6690141 L28.1392405,14.0323944 L29.0126582,14.0323944 C29.5443038,14.0323944 29.9620253,13.6140845 29.9620253,13.0816901 L29.9620253,10.7619718 C29.9240506,10.2676056 29.5063291,9.84929577 28.9746835,9.84929577 L28.9746835,9.84929577 Z"/>
    <path d="M15.0379747 11.7887324C15.1139241 11.8647887 15.1898734 11.9028169 15.2658228 11.9028169 15.3417722 11.9028169 15.4177215 11.8647887 15.4936709 11.7887324L15.6455696 11.6366197C15.7594937 11.5225352 15.7594937 11.2943662 15.6455696 11.1802817L15.4936709 10.9901408C15.3797468 10.8760563 15.1518987 10.8760563 15.0379747 10.9901408L14.8860759 11.1422535C14.8101266 11.2183099 14.8101266 11.2943662 14.8101266 11.3704225 14.8101266 11.4464789 14.8481013 11.5225352 14.8860759 11.5985915L15.0379747 11.7887324zM14.9620253 23.7295775C15.1139241 23.7295775 15.2278481 23.615493 15.2278481 23.4633803L15.2278481 16.3901408C15.2278481 16.2380282 15.1139241 16.1239437 14.9620253 16.1239437 14.8101266 16.1239437 14.6962025 16.2380282 14.6962025 16.3901408L14.6962025 23.4633803C14.6962025 23.615493 14.8101266 23.7295775 14.9620253 23.7295775M10.8987342 23.7295775C11.0506329 23.7295775 11.164557 23.615493 11.164557 23.4633803L11.164557 16.3901408C11.164557 16.2380282 11.0506329 16.1239437 10.8987342 16.1239437 10.7468354 16.1239437 10.6329114 16.2380282 10.6329114 16.3901408L10.6329114 23.4633803C10.6329114 23.615493 10.7468354 23.7295775 10.8987342 23.7295775M6.83544304 23.7295775C6.98734177 23.7295775 7.10126582 23.615493 7.10126582 23.4633803L7.10126582 16.3901408C7.10126582 16.2380282 6.98734177 16.1239437 6.83544304 16.1239437 6.6835443 16.1239437 6.56962025 16.2380282 6.56962025 16.3901408L6.56962025 23.4633803C6.56962025 23.615493 6.6835443 23.7295775 6.83544304 23.7295775M19.0253165 23.7295775C19.1772152 23.7295775 19.2911392 23.615493 19.2911392 23.4633803L19.2911392 16.3901408C19.2911392 16.2380282 19.1772152 16.1239437 19.0253165 16.1239437 18.8734177 16.1239437 18.7594937 16.2380282 18.7594937 16.3901408L18.7594937 23.4633803C18.7594937 23.615493 18.8734177 23.7295775 19.0253165 23.7295775M23.0886076 23.7295775C23.2405063 23.7295775 23.3544304 23.615493 23.3544304 23.4633803L23.3544304 16.3901408C23.3544304 16.2380282 23.2405063 16.1239437 23.0886076 16.1239437 22.9367089 16.1239437 22.8227848 16.2380282 22.8227848 16.3901408L22.8227848 23.4633803C22.8227848 23.615493 22.9367089 23.7295775 23.0886076 23.7295775"/>
  </g>
</svg>
