<svg xmlns="http://www.w3.org/2000/svg" width="52" height="52" viewBox="0 0 52 52">
  <g fill="none" fill-rule="evenodd" transform="translate(1 1)">
    <circle cx="25" cy="25" r="25"/>
    <g transform="translate(13 11)" stroke-linecap="round" stroke-linejoin="round">
      <path d="M10 18L10 23.069C10 23.069 9.664 30.13 16.886 30.188 24.107 30.245 24.022 24.027 24.022 24.027M26.5481 21C26.5481 22.381 25.4291 23.5 24.0481 23.5 22.6671 23.5 21.5481 22.381 21.5481 21 21.5481 19.619 22.6671 18.5 24.0481 18.5 25.4291 18.5 26.5481 19.619 26.5481 21L26.5481 21z"/>
      <path d="M24.9323 21C24.9323 21.488 24.5363 21.884 24.0483 21.884 23.5593 21.884 23.1643 21.488 23.1643 21 23.1643 20.512 23.5593 20.116 24.0483 20.116 24.5363 20.116 24.9323 20.512 24.9323 21L24.9323 21zM.5.5C.556 4.014.507 17.298 10.179 17.345 21.233 17.399 19.5.5 19.5.5L17.5.5M2.5.5L.5.5"/>
    </g>
  </g>
</svg>
