<svg xmlns="http://www.w3.org/2000/svg" width="52" height="52" viewBox="0 0 52 52" xmlns:xlink="http://www.w3.org/1999/xlink">
  <defs>
    <polygon id="a" points="30.327 22.966 0 22.966 0 0 30.327 0"/>
  </defs>
  <g fill="none" fill-rule="evenodd" transform="translate(1 1)">
    <circle cx="25" cy="25" r="25" />
    <g transform="translate(10 13)">
      <path d="M29.4567,20.9691 C26.5667,19.8541 20.4967,19.1551 15.6677,21.7391 L15.6677,4.7771 C18.6537,0.6741 25.3097,0.6341 26.5677,1.0241 L26.5677,2.2891 L26.5677,2.2991 L26.5677,17.5141 C24.3587,17.2781 20.7647,17.7331 18.4927,18.7791 C18.2757,18.8801 18.1797,19.1381 18.2807,19.3571 C18.3807,19.5751 18.6377,19.6711 18.8567,19.5711 C21.6547,18.2811 25.1647,18.0831 26.9127,18.4481 C27.0417,18.4741 27.1737,18.4421 27.2767,18.3591 C27.3787,18.2761 27.4367,18.1521 27.4367,18.0211 L27.4367,2.9741 C28.5887,3.5641 29.2887,4.2611 29.4567,4.4991 L29.4567,20.9691 M11.1347,19.8981 C7.7247,19.2361 3.3357,19.5481 0.8697,21.3061 L0.8697,5.0831 C2.4007,2.8511 5.3517,1.3431 8.2587,1.3191 C10.1467,1.3081 12.7757,1.8961 14.7977,4.7731 L14.7977,21.3691 C13.7917,20.5321 12.1757,20.1011 11.1347,19.8981 M30.3127,4.2811 C30.2057,3.8761 29.1337,2.7751 27.4367,2.0071 L27.4367,0.7821 C27.4367,0.7451 27.4327,0.7081 27.4227,0.6721 C27.3307,0.3221 26.9227,0.2031 26.4947,0.1271 C24.1857,-0.2839 18.3127,0.1351 15.2407,3.9021 C13.5147,1.6681 11.0837,0.4491 8.3307,0.4491 L8.2507,0.4491 C5.0217,0.4761 1.7347,2.1891 0.0707,4.7101 C0.0247,4.7821 -0.0003,4.8651 -0.0003,4.9501 L-0.0003,22.2491 C-0.0003,22.4271 0.1067,22.5871 0.2727,22.6531 C0.4357,22.7201 0.6257,22.6791 0.7487,22.5511 C2.7367,20.4791 7.4987,20.0781 10.9677,20.7521 C12.9847,21.1441 14.4367,21.8881 14.7597,22.6931 C14.7657,22.7091 14.7767,22.7211 14.7847,22.7371 C14.7897,22.7451 14.7897,22.7541 14.7947,22.7621 C14.8007,22.7711 14.8087,22.7771 14.8137,22.7861 C14.8247,22.8001 14.8347,22.8131 14.8467,22.8251 C14.8637,22.8431 14.8817,22.8601 14.9017,22.8741 C14.9127,22.8831 14.9247,22.8931 14.9387,22.9011 C14.9607,22.9141 14.9857,22.9251 15.0097,22.9351 C15.0227,22.9391 15.0337,22.9451 15.0467,22.9481 C15.0837,22.9591 15.1227,22.9651 15.1627,22.9661 L15.1637,22.9661 C15.1767,22.9661 15.1927,22.9611 15.2047,22.9601 C15.2157,22.9611 15.2237,22.9661 15.2347,22.9661 C15.3727,22.9661 15.4917,22.8961 15.5717,22.7941 C20.5657,19.7921 27.2147,20.7961 29.6997,22.0211 C29.8347,22.0871 29.9947,22.0791 30.1227,21.9991 C30.2497,21.9201 30.3277,21.7811 30.3277,21.6301 L30.3277,4.3921 C30.3267,4.3551 30.3227,4.3181 30.3127,4.2811"/>
    </g>
  </g>
</svg>
