<svg xmlns="http://www.w3.org/2000/svg" width="19" height="14" viewBox="0 0 19 14">
  <path fill-rule="evenodd" d="M30.4835502,17.7979172 L30.4395794,17.8342881 L27.5950486,20.4453936 C27.5725204,20.4695504 27.5472779,20.4907216 27.5220354,20.5124355 C27.3621663,20.6492336 27.1569692,20.7350038 26.9300581,20.7350038 C26.4243939,20.7350038 26.0142712,20.3248811 26.0142712,19.8192169 L26.0142712,16.9157869 C26.0142712,16.4101227 25.6041485,16 25.0984843,16 L13.9157869,16 C13.4101227,16 13,16.4101227 13,16.9157869 L13,28.0984843 C13,28.6041485 13.4101227,29.0142712 13.9157869,29.0142712 L25.0984843,29.0142712 C25.6041485,29.0142712 26.0142712,28.6041485 26.0142712,28.0984843 L26.0142712,25.1955972 C26.0142712,24.689933 26.4243939,24.2798103 26.9300581,24.2798103 C27.1569692,24.2798103 27.3621663,24.3655805 27.5220354,24.5023785 C27.5472779,24.5240925 27.572249,24.5452636 27.5950486,24.5694204 L30.4357795,27.1769975 L30.4835502,27.2206968 C30.6445051,27.3577663 30.8532307,27.4462508 31.0842131,27.4462508 C31.5898773,27.4462508 32,27.0361281 32,26.5304639 L32,18.4840788 C31.9997286,17.9784146 31.5898773,17.5682919 31.0842131,17.5682919 C30.8532307,17.5682919 30.6445051,17.6567763 30.4835502,17.7979172 Z" transform="translate(-13 -16)"/>
</svg>
