<svg xmlns="http://www.w3.org/2000/svg" width="27" height="27" viewBox="0 0 27 27">
  <path fill-rule="evenodd" d="M113.956654,7.84512679 C114.263296,9.13389464 111.249904,9.10255536 111.249904,12.0894304 C111.249904,14.5170196 113.987993,16.4398054 115.707796,17.3312875 C115.936814,16.4238946 116.071332,15.4788946 116.071332,14.5001446 C116.071332,12.0204839 115.284475,9.72837679 113.956654,7.84512679 M113.090725,6.76705536 C111.847761,5.3871625 110.280796,4.31198393 108.506029,3.6557875 C108.472279,3.74112679 108.426957,3.82309107 108.357046,3.89300179 C107.874904,4.37514464 106.910618,5.82157321 108.839189,5.82157321 C108.839189,5.82157321 107.874904,8.71443036 109.321332,8.71443036 C110.577796,8.71443036 111.834261,6.17209107 113.090725,6.76705536 M104.499904,27.0358589 C97.5768143,27.0358589 91.9641893,21.4232339 91.9641893,14.5001446 C91.9641893,7.57657321 97.5768143,1.96443036 104.499904,1.96443036 C111.423475,1.96443036 117.035618,7.57657321 117.035618,14.5001446 C117.035618,21.4232339 111.423475,27.0358589 104.499904,27.0358589 M104.499904,1.00014464 C97.0440464,1.00014464 90.9999036,7.0442875 90.9999036,14.5001446 C90.9999036,21.9560018 97.0440464,28.0001446 104.499904,28.0001446 C111.955761,28.0001446 117.999904,21.9560018 117.999904,14.5001446 C117.999904,7.0442875 111.955761,1.00014464 104.499904,1.00014464 M104.017761,11.1251446 C105.946332,10.1608589 105.464189,9.67871607 106.428475,9.67871607 C107.392761,9.67871607 107.392761,7.75014464 105.464189,7.75014464 C103.535618,7.75014464 104.499904,10.1608589 103.053475,8.71443036 C101.607046,7.26800179 103.535618,7.75014464 104.499904,6.78585893 C105.464189,5.82157321 103.535618,5.33943036 103.053475,6.30371607 C103.053475,6.30371607 101.607046,4.8572875 100.642761,7.26800179 C100.642761,7.26800179 98.7243143,6.11568036 98.0343679,4.90260893 C97.0657429,5.55639464 96.2065643,6.35675179 95.4761179,7.26607321 C95.884975,7.4796625 96.3328857,7.77907321 96.7856179,8.2322875 C98.2320464,9.67871607 97.2677607,11.1251446 96.7856179,12.0894304 C96.303475,13.0537161 98.2320464,14.5001446 98.2320464,14.5001446 C98.2320464,14.5001446 99.678475,15.4644304 101.124904,15.9465732 C101.124904,15.9465732 102.089189,15.4644304 100.160618,14.5001446 C100.160618,14.5001446 98.7141893,13.0537161 100.642761,12.5715732 C102.089189,12.0894304 101.124904,13.5358589 102.089189,13.5358589 C103.053475,13.5358589 102.089189,12.0894304 104.017761,11.1251446 M107.497868,17.1707339 C106.596261,16.7073946 107.948671,16.7073946 105.695136,15.7807161 C103.4416,14.8540375 102.089189,15.7807161 102.089189,17.1707339 C102.089189,19.9502875 103.892404,20.4136268 103.892404,20.4136268 C103.4416,22.7303232 103.892404,23.6570018 104.343207,24.1203411 C104.793529,24.5836804 105.100654,25.2731446 105.507582,25.0470196 C105.914029,24.8208946 106.145939,21.8036446 107.497868,20.4136268 C108.850279,19.0240911 108.399475,17.6340732 107.497868,17.1707339" transform="translate(-91 -1)"/>
</svg>
